<svg width="39" height="39" viewBox="0 0 39 39" fill="none" xmlns="http://www.w3.org/2000/svg">
<path d="M16.7118 20.7816H23.0254C23.444 20.7816 23.8455 20.6149 24.1415 20.3183C24.4375 20.0216 24.6038 19.6192 24.6038 19.1997C24.6038 18.7802 24.4375 18.3778 24.1415 18.0812C23.8455 17.7845 23.444 17.6178 23.0254 17.6178H16.7118C16.2932 17.6178 15.8917 17.7845 15.5957 18.0812C15.2997 18.3778 15.1334 18.7802 15.1334 19.1997C15.1334 19.6192 15.2997 20.0216 15.5957 20.3183C15.8917 20.6149 16.2932 20.7816 16.7118 20.7816ZM30.9174 4.96289H8.81981C7.70934 4.97153 6.63722 5.37103 5.79087 6.09158C4.94452 6.81212 4.37779 7.80786 4.18973 8.90473C4.00168 10.0016 4.20428 11.1298 4.76211 12.0922C5.31993 13.0545 6.1975 13.7898 7.24141 14.1694V28.6909C7.24141 29.9495 7.7403 31.1566 8.62832 32.0466C9.51634 32.9365 10.7208 33.4365 11.9766 33.4365H27.7606C29.0165 33.4365 30.2209 32.9365 31.1089 32.0466C31.9969 31.1566 32.4958 29.9495 32.4958 28.6909V14.1694C33.5397 13.7898 34.4173 13.0545 34.9751 12.0922C35.533 11.1298 35.7356 10.0016 35.5475 8.90473C35.3594 7.80786 34.7927 6.81212 33.9464 6.09158C33.1 5.37103 32.0279 4.97153 30.9174 4.96289ZM29.339 28.6909C29.339 29.1105 29.1727 29.5128 28.8767 29.8095C28.5807 30.1061 28.1792 30.2728 27.7606 30.2728H11.9766C11.558 30.2728 11.1565 30.1061 10.8605 29.8095C10.5645 29.5128 10.3982 29.1105 10.3982 28.6909V14.4541H29.339V28.6909ZM30.9174 11.2904H8.81981C8.4012 11.2904 7.99972 11.1237 7.70372 10.827C7.40771 10.5304 7.24141 10.128 7.24141 9.7085C7.24141 9.28896 7.40771 8.8866 7.70372 8.58995C7.99972 8.29329 8.4012 8.12663 8.81981 8.12663H30.9174C31.336 8.12663 31.7375 8.29329 32.0335 8.58995C32.3295 8.8866 32.4958 9.28896 32.4958 9.7085C32.4958 10.128 32.3295 10.5304 32.0335 10.827C31.7375 11.1237 31.336 11.2904 30.9174 11.2904Z" fill="white" fill-opacity="0.5"/>
</svg>
