<svg width="39" height="39" viewBox="0 0 39 39" fill="none" xmlns="http://www.w3.org/2000/svg">
<path d="M19.8695 22.7227C20.1816 22.7227 20.4868 22.6299 20.7464 22.4561C21.0059 22.2822 21.2082 22.0352 21.3277 21.7461C21.4472 21.4571 21.4784 21.139 21.4175 20.8322C21.3566 20.5253 21.2063 20.2435 20.9856 20.0222C20.7648 19.801 20.4836 19.6504 20.1774 19.5893C19.8712 19.5283 19.5538 19.5596 19.2654 19.6793C18.977 19.7991 18.7305 20.0018 18.5571 20.2619C18.3836 20.5221 18.2911 20.8279 18.2911 21.1408C18.2911 21.5603 18.4574 21.9627 18.7534 22.2593C19.0494 22.556 19.4508 22.7227 19.8695 22.7227ZM27.7615 22.7227C28.0736 22.7227 28.3788 22.6299 28.6384 22.4561C28.8979 22.2822 29.1002 22.0352 29.2197 21.7461C29.3392 21.4571 29.3704 21.139 29.3095 20.8322C29.2486 20.5253 29.0983 20.2435 28.8776 20.0222C28.6568 19.801 28.3756 19.6504 28.0694 19.5893C27.7632 19.5283 27.4458 19.5596 27.1574 19.6793C26.869 19.7991 26.6225 20.0018 26.4491 20.2619C26.2756 20.5221 26.1831 20.8279 26.1831 21.1408C26.1831 21.5603 26.3494 21.9627 26.6454 22.2593C26.9414 22.556 27.3428 22.7227 27.7615 22.7227ZM19.8695 29.0501C20.1816 29.0501 20.4868 28.9574 20.7464 28.7835C21.0059 28.6097 21.2082 28.3627 21.3277 28.0736C21.4472 27.7846 21.4784 27.4665 21.4175 27.1597C21.3566 26.8528 21.2063 26.5709 20.9856 26.3497C20.7648 26.1285 20.4836 25.9778 20.1774 25.9168C19.8712 25.8558 19.5538 25.8871 19.2654 26.0068C18.977 26.1265 18.7305 26.3293 18.5571 26.5894C18.3836 26.8496 18.2911 27.1554 18.2911 27.4683C18.2911 27.8878 18.4574 28.2902 18.7534 28.5868C19.0494 28.8835 19.4508 29.0501 19.8695 29.0501ZM27.7615 29.0501C28.0736 29.0501 28.3788 28.9574 28.6384 28.7835C28.8979 28.6097 29.1002 28.3627 29.2197 28.0736C29.3392 27.7846 29.3704 27.4665 29.3095 27.1597C29.2486 26.8528 29.0983 26.5709 28.8776 26.3497C28.6568 26.1285 28.3756 25.9778 28.0694 25.9168C27.7632 25.8558 27.4458 25.8871 27.1574 26.0068C26.869 26.1265 26.6225 26.3293 26.4491 26.5894C26.2756 26.8496 26.1831 27.1554 26.1831 27.4683C26.1831 27.8878 26.3494 28.2902 26.6454 28.5868C26.9414 28.8835 27.3428 29.0501 27.7615 29.0501ZM11.9775 22.7227C12.2896 22.7227 12.5948 22.6299 12.8544 22.4561C13.1139 22.2822 13.3162 22.0352 13.4357 21.7461C13.5552 21.4571 13.5864 21.139 13.5255 20.8322C13.4646 20.5253 13.3143 20.2435 13.0936 20.0222C12.8728 19.801 12.5916 19.6504 12.2854 19.5893C11.9792 19.5283 11.6618 19.5596 11.3734 19.6793C11.085 19.7991 10.8385 20.0018 10.6651 20.2619C10.4916 20.5221 10.3991 20.8279 10.3991 21.1408C10.3991 21.5603 10.5653 21.9627 10.8614 22.2593C11.1574 22.556 11.5588 22.7227 11.9775 22.7227ZM30.9183 6.90397H29.3399V5.3221C29.3399 4.90257 29.1736 4.50021 28.8776 4.20355C28.5816 3.90689 28.1801 3.74023 27.7615 3.74023C27.3428 3.74023 26.9414 3.90689 26.6454 4.20355C26.3494 4.50021 26.1831 4.90257 26.1831 5.3221V6.90397H13.5559V5.3221C13.5559 4.90257 13.3896 4.50021 13.0936 4.20355C12.7975 3.90689 12.3961 3.74023 11.9775 3.74023C11.5588 3.74023 11.1574 3.90689 10.8614 4.20355C10.5653 4.50021 10.3991 4.90257 10.3991 5.3221V6.90397H8.82065C7.5648 6.90397 6.36038 7.40395 5.47236 8.29393C4.58434 9.1839 4.08545 10.391 4.08545 11.6496V30.632C4.08545 31.8906 4.58434 33.0977 5.47236 33.9876C6.36038 34.8776 7.5648 35.3776 8.82065 35.3776H30.9183C32.1741 35.3776 33.3785 34.8776 34.2666 33.9876C35.1546 33.0977 35.6535 31.8906 35.6535 30.632V11.6496C35.6535 10.391 35.1546 9.1839 34.2666 8.29393C33.3785 7.40395 32.1741 6.90397 30.9183 6.90397ZM32.4967 30.632C32.4967 31.0515 32.3304 31.4539 32.0344 31.7506C31.7384 32.0472 31.3369 32.2139 30.9183 32.2139H8.82065C8.40203 32.2139 8.00056 32.0472 7.70455 31.7506C7.40855 31.4539 7.24225 31.0515 7.24225 30.632V16.3952H32.4967V30.632ZM32.4967 13.2314H7.24225V11.6496C7.24225 11.23 7.40855 10.8277 7.70455 10.531C8.00056 10.2344 8.40203 10.0677 8.82065 10.0677H30.9183C31.3369 10.0677 31.7384 10.2344 32.0344 10.531C32.3304 10.8277 32.4967 11.23 32.4967 11.6496V13.2314ZM11.9775 29.0501C12.2896 29.0501 12.5948 28.9574 12.8544 28.7835C13.1139 28.6097 13.3162 28.3627 13.4357 28.0736C13.5552 27.7846 13.5864 27.4665 13.5255 27.1597C13.4646 26.8528 13.3143 26.5709 13.0936 26.3497C12.8728 26.1285 12.5916 25.9778 12.2854 25.9168C11.9792 25.8558 11.6618 25.8871 11.3734 26.0068C11.085 26.1265 10.8385 26.3293 10.6651 26.5894C10.4916 26.8496 10.3991 27.1554 10.3991 27.4683C10.3991 27.8878 10.5653 28.2902 10.8614 28.5868C11.1574 28.8835 11.5588 29.0501 11.9775 29.0501Z" fill="white" fill-opacity="0.5"/>
</svg>
