<svg width="39" height="39" viewBox="0 0 39 39" fill="none" xmlns="http://www.w3.org/2000/svg">
<path d="M24.6039 22.4336H15.1335C14.7148 22.4336 14.3134 22.6003 14.0174 22.8969C13.7214 23.1936 13.5551 23.5959 13.5551 24.0155C13.5551 24.435 13.7214 24.8374 14.0174 25.134C14.3134 25.4307 14.7148 25.5973 15.1335 25.5973H24.6039C25.0225 25.5973 25.424 25.4307 25.72 25.134C26.016 24.8374 26.1823 24.435 26.1823 24.0155C26.1823 23.5959 26.016 23.1936 25.72 22.8969C25.424 22.6003 25.0225 22.4336 24.6039 22.4336ZM24.6039 16.1061H18.2903C17.8716 16.1061 17.4702 16.2728 17.1742 16.5694C16.8782 16.8661 16.7119 17.2685 16.7119 17.688C16.7119 18.1075 16.8782 18.5099 17.1742 18.8065C17.4702 19.1032 17.8716 19.2699 18.2903 19.2699H24.6039C25.0225 19.2699 25.424 19.1032 25.72 18.8065C26.016 18.5099 26.1823 18.1075 26.1823 17.688C26.1823 17.2685 26.016 16.8661 25.72 16.5694C25.424 16.2728 25.0225 16.1061 24.6039 16.1061ZM27.7607 6.61491H25.8982C25.5725 5.69181 24.9699 4.89225 24.1731 4.32585C23.3762 3.75944 22.424 3.45392 21.4471 3.45117H18.2903C17.3133 3.45392 16.3611 3.75944 15.5643 4.32585C14.7674 4.89225 14.1648 5.69181 13.8392 6.61491H11.9767C10.7208 6.61491 9.51639 7.11489 8.62836 8.00486C7.74034 8.89484 7.24146 10.1019 7.24146 11.3605V30.3429C7.24146 31.6015 7.74034 32.8086 8.62836 33.6986C9.51639 34.5886 10.7208 35.0885 11.9767 35.0885H27.7607C29.0165 35.0885 30.2209 34.5886 31.109 33.6986C31.997 32.8086 32.4959 31.6015 32.4959 30.3429V11.3605C32.4959 10.1019 31.997 8.89484 31.109 8.00486C30.2209 7.11489 29.0165 6.61491 27.7607 6.61491ZM16.7119 8.19678C16.7119 7.77724 16.8782 7.37489 17.1742 7.07823C17.4702 6.78157 17.8716 6.61491 18.2903 6.61491H21.4471C21.8657 6.61491 22.2672 6.78157 22.5632 7.07823C22.8592 7.37489 23.0255 7.77724 23.0255 8.19678V9.77865H16.7119V8.19678ZM29.3391 30.3429C29.3391 30.7625 29.1728 31.1648 28.8768 31.4615C28.5808 31.7581 28.1793 31.9248 27.7607 31.9248H11.9767C11.558 31.9248 11.1566 31.7581 10.8606 31.4615C10.5646 31.1648 10.3983 30.7625 10.3983 30.3429V11.3605C10.3983 10.941 10.5646 10.5386 10.8606 10.242C11.1566 9.94531 11.558 9.77865 11.9767 9.77865H13.5551V11.3605C13.5551 11.7801 13.7214 12.1824 14.0174 12.4791C14.3134 12.7757 14.7148 12.9424 15.1335 12.9424H24.6039C25.0225 12.9424 25.424 12.7757 25.72 12.4791C26.016 12.1824 26.1823 11.7801 26.1823 11.3605V9.77865H27.7607C28.1793 9.77865 28.5808 9.94531 28.8768 10.242C29.1728 10.5386 29.3391 10.941 29.3391 11.3605V30.3429Z" fill="white" fill-opacity="0.5"/>
</svg>
