<svg width="39" height="39" viewBox="0 0 39 39" fill="none" xmlns="http://www.w3.org/2000/svg">
<path d="M16.7127 21.2091H5.66385C5.24523 21.2091 4.84376 21.3758 4.54775 21.6725C4.25174 21.9691 4.08545 22.3715 4.08545 22.791V33.8641C4.08545 34.2836 4.25174 34.686 4.54775 34.9826C4.84376 35.2793 5.24523 35.446 5.66385 35.446H16.7127C17.1313 35.446 17.5327 35.2793 17.8288 34.9826C18.1248 34.686 18.2911 34.2836 18.2911 33.8641V22.791C18.2911 22.3715 18.1248 21.9691 17.8288 21.6725C17.5327 21.3758 17.1313 21.2091 16.7127 21.2091ZM15.1343 32.2822H7.24225V24.3729H15.1343V32.2822ZM34.0751 3.80859H23.0263C22.6076 3.80859 22.2062 3.97525 21.9102 4.27191C21.6142 4.56857 21.4479 4.97092 21.4479 5.39046V16.4635C21.4479 16.8831 21.6142 17.2854 21.9102 17.5821C22.2062 17.8787 22.6076 18.0454 23.0263 18.0454H34.0751C34.4937 18.0454 34.8952 17.8787 35.1912 17.5821C35.4872 17.2854 35.6535 16.8831 35.6535 16.4635V5.39046C35.6535 4.97092 35.4872 4.56857 35.1912 4.27191C34.8952 3.97525 34.4937 3.80859 34.0751 3.80859ZM32.4967 14.8817H24.6047V6.97233H32.4967V14.8817ZM34.0751 21.2091H23.0263C22.6076 21.2091 22.2062 21.3758 21.9102 21.6725C21.6142 21.9691 21.4479 22.3715 21.4479 22.791V33.8641C21.4479 34.2836 21.6142 34.686 21.9102 34.9826C22.2062 35.2793 22.6076 35.446 23.0263 35.446H34.0751C34.4937 35.446 34.8952 35.2793 35.1912 34.9826C35.4872 34.686 35.6535 34.2836 35.6535 33.8641V22.791C35.6535 22.3715 35.4872 21.9691 35.1912 21.6725C34.8952 21.3758 34.4937 21.2091 34.0751 21.2091ZM32.4967 32.2822H24.6047V24.3729H32.4967V32.2822ZM16.7127 3.80859H5.66385C5.24523 3.80859 4.84376 3.97525 4.54775 4.27191C4.25174 4.56857 4.08545 4.97092 4.08545 5.39046V16.4635C4.08545 16.8831 4.25174 17.2854 4.54775 17.5821C4.84376 17.8787 5.24523 18.0454 5.66385 18.0454H16.7127C17.1313 18.0454 17.5327 17.8787 17.8288 17.5821C18.1248 17.2854 18.2911 16.8831 18.2911 16.4635V5.39046C18.2911 4.97092 18.1248 4.56857 17.8288 4.27191C17.5327 3.97525 17.1313 3.80859 16.7127 3.80859ZM15.1343 14.8817H7.24225V6.97233H15.1343V14.8817Z" fill="white" fill-opacity="0.5"/>
</svg>
