<svg width="39" height="39" viewBox="0 0 39 39" fill="none" xmlns="http://www.w3.org/2000/svg">
<path d="M18.9847 3.30859C14.9383 3.32016 11.0509 4.88874 8.12531 7.69037V4.89046C8.12531 4.47092 7.95901 4.06857 7.66301 3.77191C7.367 3.47525 6.96552 3.30859 6.54691 3.30859C6.12829 3.30859 5.72682 3.47525 5.43081 3.77191C5.1348 4.06857 4.96851 4.47092 4.96851 4.89046V12.0089C4.96851 12.4284 5.1348 12.8308 5.43081 13.1274C5.72682 13.4241 6.12829 13.5907 6.54691 13.5907H13.6497C14.0683 13.5907 14.4698 13.4241 14.7658 13.1274C15.0618 12.8308 15.2281 12.4284 15.2281 12.0089C15.2281 11.5893 15.0618 11.187 14.7658 10.8903C14.4698 10.5937 14.0683 10.427 13.6497 10.427H9.86155C11.3006 8.90368 13.0949 7.76276 15.0831 7.10688C17.0713 6.451 19.191 6.30073 21.2515 6.66959C23.312 7.03846 25.2487 7.91488 26.8874 9.22002C28.5261 10.5252 29.8153 12.2181 30.6392 14.1465C31.463 16.0749 31.7956 18.1783 31.607 20.2675C31.4184 22.3567 30.7146 24.3662 29.5588 26.1151C28.403 27.864 26.8316 29.2976 24.9858 30.2868C23.14 31.2761 21.0778 31.7899 18.9847 31.7822C18.5661 31.7822 18.1646 31.9489 17.8686 32.2455C17.5726 32.5422 17.4063 32.9446 17.4063 33.3641C17.4063 33.7836 17.5726 34.186 17.8686 34.4826C18.1646 34.7793 18.5661 34.946 18.9847 34.946C23.1709 34.946 27.1856 33.2794 30.1457 30.3128C33.1058 27.3462 34.7687 23.3227 34.7687 19.1273C34.7687 14.9319 33.1058 10.9084 30.1457 7.94178C27.1856 4.9752 23.1709 3.30859 18.9847 3.30859ZM18.9847 12.7998C18.5661 12.7998 18.1646 12.9665 17.8686 13.2631C17.5726 13.5598 17.4063 13.9621 17.4063 14.3817V19.1273C17.4063 19.5468 17.5726 19.9492 17.8686 20.2458C18.1646 20.5425 18.5661 20.7091 18.9847 20.7091H22.1415C22.5601 20.7091 22.9616 20.5425 23.2576 20.2458C23.5536 19.9492 23.7199 19.5468 23.7199 19.1273C23.7199 18.7077 23.5536 18.3054 23.2576 18.0087C22.9616 17.7121 22.5601 17.5454 22.1415 17.5454H20.5631V14.3817C20.5631 13.9621 20.3968 13.5598 20.1008 13.2631C19.8048 12.9665 19.4033 12.7998 18.9847 12.7998Z" fill="white" fill-opacity="0.5"/>
</svg>
