<svg width="39" height="39" viewBox="0 0 39 39" fill="none" xmlns="http://www.w3.org/2000/svg">
<path d="M19.8687 3.5957C16.5197 3.5957 13.3079 4.92899 10.9399 7.30225C8.57182 9.67551 7.24146 12.8944 7.24146 16.2507C7.24146 24.7927 18.3692 34.4421 18.8427 34.8534C19.1286 35.0985 19.4924 35.2332 19.8687 35.2332C20.2449 35.2332 20.6087 35.0985 20.8946 34.8534C21.4471 34.4421 32.4959 24.7927 32.4959 16.2507C32.4959 12.8944 31.1655 9.67551 28.7974 7.30225C26.4294 4.92899 23.2176 3.5957 19.8687 3.5957ZM19.8687 31.5157C16.5067 28.3519 10.3983 21.5341 10.3983 16.2507C10.3983 13.7334 11.396 11.3193 13.1721 9.53935C14.9481 7.7594 17.357 6.75944 19.8687 6.75944C22.3804 6.75944 24.7892 7.7594 26.5653 9.53935C28.3413 11.3193 29.3391 13.7334 29.3391 16.2507C29.3391 21.5341 23.2307 28.3678 19.8687 31.5157ZM19.8687 9.92318C18.6199 9.92318 17.3993 10.2943 16.361 10.9895C15.3227 11.6848 14.5135 12.673 14.0357 13.8292C13.5578 14.9854 13.4328 16.2577 13.6764 17.4851C13.92 18.7125 14.5213 19.8399 15.4043 20.7249C16.2872 21.6098 17.4122 22.2124 18.6369 22.4565C19.8617 22.7007 21.1311 22.5754 22.2848 22.0965C23.4384 21.6176 24.4245 20.8066 25.1182 19.766C25.812 18.7255 26.1823 17.5021 26.1823 16.2507C26.1823 14.5725 25.5171 12.9631 24.3331 11.7765C23.149 10.5898 21.5431 9.92318 19.8687 9.92318ZM19.8687 19.4144C19.2443 19.4144 18.634 19.2288 18.1148 18.8812C17.5957 18.5336 17.1911 18.0395 16.9522 17.4614C16.7132 16.8833 16.6507 16.2471 16.7725 15.6334C16.8943 15.0197 17.195 14.456 17.6365 14.0136C18.078 13.5711 18.6404 13.2698 19.2528 13.1477C19.8652 13.0256 20.4999 13.0883 21.0767 13.3277C21.6535 13.5672 22.1466 13.9727 22.4934 14.493C22.8403 15.0132 23.0255 15.6249 23.0255 16.2507C23.0255 17.0897 22.6929 17.8944 22.1009 18.4878C21.5088 19.0811 20.7059 19.4144 19.8687 19.4144Z" fill="white" fill-opacity="0.5"/>
</svg>
