<svg width="39" height="39" viewBox="0 0 39 39" fill="none" xmlns="http://www.w3.org/2000/svg">
<path d="M34.0741 26.9475V8.93474C34.0741 8.61623 33.7522 8.39854 33.4566 8.51705L26.3174 11.379C26.2294 11.4143 26.1325 11.4209 26.0406 11.3978L13.6963 8.30497C13.6044 8.28193 13.5075 8.28852 13.4195 8.32379L5.9454 11.32C5.77472 11.3884 5.66284 11.5538 5.66284 11.7377V29.7505C5.66284 30.069 5.98465 30.2867 6.28028 30.1682L13.4195 27.3062C13.5075 27.2709 13.6044 27.2644 13.6963 27.2874L26.0406 30.3802C26.1325 30.4033 26.2294 30.3967 26.3174 30.3614L33.7915 27.3652C33.9622 27.2968 34.0741 27.1314 34.0741 26.9475Z" stroke="white" stroke-opacity="0.5" stroke-width="2" stroke-linejoin="round"/>
<path d="M26.1821 30.4141V11.4316" stroke="white" stroke-opacity="0.5" stroke-width="2"/>
<path d="M13.5549 27.252L13.5549 8.26953" stroke="white" stroke-opacity="0.5" stroke-width="2"/>
</svg>
