<svg width="39" height="39" viewBox="0 0 39 39" fill="none" xmlns="http://www.w3.org/2000/svg">
<path d="M25.7245 20.6087C27.2719 19.3885 28.4014 17.7153 28.9558 15.8219C29.5102 13.9284 29.462 11.9089 28.8178 10.0441C28.1736 8.17945 26.9655 6.56234 25.3615 5.4178C23.7576 4.27326 21.8376 3.6582 19.8686 3.6582C17.8996 3.6582 15.9796 4.27326 14.3756 5.4178C12.7717 6.56234 11.5636 8.17945 10.9194 10.0441C10.2752 11.9089 10.2269 13.9284 10.7814 15.8219C11.3358 17.7153 12.4653 19.3885 14.0127 20.6087C11.3611 21.6734 9.04752 23.4392 7.31855 25.718C5.58958 27.9968 4.51006 30.7031 4.19507 33.5484C4.17227 33.7561 4.19052 33.9663 4.24877 34.167C4.30703 34.3677 4.40415 34.5549 4.5346 34.7179C4.79805 35.0472 5.18123 35.2581 5.59984 35.3043C6.01846 35.3504 6.43823 35.228 6.7668 34.964C7.09536 34.7 7.30582 34.3159 7.35187 33.8964C7.69846 30.8042 9.16969 27.9483 11.4845 25.8744C13.7992 23.8006 16.7953 22.6541 19.9002 22.6541C23.005 22.6541 26.0011 23.8006 28.3158 25.8744C30.6306 27.9483 32.1018 30.8042 32.4484 33.8964C32.4914 34.2851 32.6764 34.6441 32.9679 34.9041C33.2594 35.1641 33.6366 35.3066 34.0268 35.3043H34.2005C34.6142 35.2566 34.9924 35.0469 35.2526 34.721C35.5127 34.395 35.6338 33.9792 35.5895 33.5642C35.273 30.7108 34.1876 27.9976 32.4498 25.7153C30.7119 23.433 28.3871 21.6677 25.7245 20.6087ZM19.8686 19.4856C18.6199 19.4856 17.3992 19.1145 16.3609 18.4192C15.3227 17.7239 14.5134 16.7357 14.0356 15.5795C13.5577 14.4233 13.4327 13.1511 13.6763 11.9237C13.9199 10.6963 14.5212 9.56882 15.4042 8.68391C16.2872 7.79899 17.4121 7.19636 18.6369 6.95221C19.8616 6.70807 21.131 6.83337 22.2847 7.31228C23.4384 7.7912 24.4244 8.6022 25.1182 9.64275C25.8119 10.6833 26.1822 11.9067 26.1822 13.1581C26.1822 14.8363 25.517 16.4457 24.333 17.6323C23.1489 18.8189 21.5431 19.4856 19.8686 19.4856Z" fill="#FFFBFB" fill-opacity="0.5"/>
</svg>
